<?xml version="1.0" standalone="no"?><!DOCTYPE svg PUBLIC "-//W3C//DTD SVG 1.1//EN" "http://www.w3.org/Graphics/SVG/1.1/DTD/svg11.dtd"><svg t="1703919903345" class="icon" viewBox="0 0 1024 1024" version="1.1" xmlns="http://www.w3.org/2000/svg" p-id="2495" width="16" height="16" xmlns:xlink="http://www.w3.org/1999/xlink"><path d="M522.666667 160a106.666667 106.666667 0 0 1 32 208.448v115.264a138.730667 138.730667 0 0 1 100.885333 174.72l99.84 57.6a106.709333 106.709333 0 0 1 164.48 131.968 106.666667 106.666667 0 0 1-196.522667-76.501333l-99.84-57.642667A138.282667 138.282667 0 0 1 522.666667 757.333333a138.282667 138.282667 0 0 1-100.864-43.52l-99.84 57.664A106.709333 106.709333 0 0 1 125.44 848a106.666667 106.666667 0 0 1 164.522667-131.946667l99.84-57.621333A138.730667 138.730667 0 0 1 490.666667 483.712l-0.021334-115.264A106.709333 106.709333 0 0 1 522.666667 160z m326.186666 597.717333a42.666667 42.666667 0 1 0-42.666666 73.898667 42.666667 42.666667 0 0 0 42.666666-73.898667z m-594.069333 15.616a42.666667 42.666667 0 1 0-73.898667 42.666667 42.666667 42.666667 0 0 0 73.898667-42.666667zM522.666667 544a74.666667 74.666667 0 1 0 0 149.333333 74.666667 74.666667 0 0 0 0-149.333333z m0-320a42.666667 42.666667 0 1 0 0 85.333333 42.666667 42.666667 0 0 0 0-85.333333z" fill="#1677FF" p-id="2496"></path></svg>